Coordinates
version=1
nRows=19
nColumns=34
inDegrees=yes

Units are S.I. units (second, meters, Newtons, ...)
If the header above contains a line with 'inDegrees', this indicates whether rotational values are in degrees (yes) or radians (no).

endheader
time	pelvis_tilt	pelvis_list	pelvis_rotation	pelvis_tx	pelvis_ty	pelvis_tz	hip_flexion_r	hip_adduction_r	hip_rotation_r	knee_angle_r	ankle_angle_r	subtalar_angle_r	mtp_angle_r	hip_flexion_l	hip_adduction_l	hip_rotation_l	knee_angle_l	ankle_angle_l	subtalar_angle_l	mtp_angle_l	lumbar_extension	lumbar_bending	lumbar_rotation	arm_flex_r	arm_add_r	arm_rot_r	elbow_flex_r	pro_sup_r	arm_flex_l	arm_add_l	arm_rot_l	elbow_flex_l	pro_sup_l
      1.93333330	    -35.34210575	      1.71797602	      0.37146575	      0.25489076	      0.57852585	     -0.07670573	    100.47500947	    -19.25307471	     -1.21835438	    105.23170506	     37.32472765	    -13.18211213	      0.00000000	    102.13653179	    -15.27340041	     -1.47892546	    103.92789928	     26.98256959	    -16.41276490	      0.00000000	    -20.39097746	      0.20981722	     -0.01602331	    101.65276192	     -0.19073338	     50.06395398	    127.81170792	     87.59432655	    115.05927551	     13.55005327	     72.12775340	    120.59266654	     70.11733195
      1.95000000	    -34.68967369	      1.81257402	      0.16539365	      0.25325590	      0.59150240	     -0.08111000	     98.30187496	    -19.01164496	     -1.59898040	    102.96897621	     36.50709322	    -12.92803709	      0.00000000	     99.90540208	    -15.23032309	     -2.14919270	    101.70399034	     26.62463653	    -16.36337261	      0.00000000	    -20.15173128	     -0.03432145	     -0.11818648	    101.46904882	      0.08149659	     48.91690726	    127.40878920	     87.63148348	    114.88884536	     13.21744534	     71.90431877	    120.64665901	     70.21951736
      1.96666670	    -34.06171562	      1.87421957	     -0.08190533	      0.25551019	      0.60509574	     -0.08029642	     96.13665208	    -18.80486550	     -1.94917829	    100.84854597	     35.68550513	    -12.49344661	      0.00000000	     97.70438251	    -15.13068993	     -2.65165322	     99.63775069	     26.17609183	    -16.45099462	      0.00000000	    -19.84843282	     -0.21767606	     -0.36949563	    100.89864193	      0.34920904	     48.11255684	    127.38253789	     87.72351695	    114.69019259	     12.78126105	     71.49600225	    120.78997605	     70.31905876
      1.98333330	    -33.45009442	      1.98870057	     -0.36279642	      0.25830590	      0.61926208	     -0.08272210	     93.91413787	    -18.67260241	     -2.28100288	     98.61439856	     34.95849162	    -11.98084590	      0.00000000	     95.51009491	    -14.93038506	     -3.12166415	     97.72243326	     25.60815170	    -16.71565027	      0.00000000	    -19.38903851	     -0.34226864	     -0.58026825	    100.21481945	      0.63738346	     48.00778401	    127.68601076	     87.88629534	    114.24133111	     12.39721642	     70.88758664	    120.94013081	     70.42128396
      2.00000000	    -32.84112339	      2.09414939	     -0.78150560	      0.25947404	      0.63135435	     -0.08252653	     91.75970270	    -18.40120579	     -2.76295064	     96.36638600	     34.22548958	    -11.66407566	      0.00000000	     93.30684784	    -14.76087095	     -3.38430559	     95.70230731	     25.12047654	    -16.84849830	      0.00000000	    -18.69547922	     -0.48693919	     -0.70920851	     99.32220855	      0.88835160	     47.64703862	    128.02299872	     88.03748458	    113.67329240	     12.01816249	     70.53931890	    121.02845711	     70.51742814
      2.01666670	    -32.27999990	      2.28017293	     -1.09225592	      0.26132384	      0.64606425	     -0.08374245	     89.54328184	    -18.14358105	     -3.24403354	     93.97375039	     33.57043954	    -11.72989414	      0.00000000	     91.09939879	    -14.50998520	     -3.75049325	     93.65297026	     24.31066347	    -17.06243647	      0.00000000	    -17.99451222	     -0.68906291	     -0.85303542	     98.42536898	      1.05999522	     47.79230927	    128.35584285	     88.22345843	    112.82353126	     11.45814114	     70.01153061	    121.04728954	     70.61168546
      2.03333330	    -31.78221977	      2.49239439	     -1.40670528	      0.26740786	      0.65957911	     -0.08515650	     87.22123659	    -17.93183375	     -3.64711803	     91.41580781	     32.86436741	    -11.67284214	      0.00000000	     88.76892303	    -14.29674152	     -4.20313467	     91.45051685	     23.57910433	    -17.23418426	      0.00000000	    -17.01285973	     -0.78909035	     -0.93988208	     97.15953846	      1.24986766	     48.21214913	    128.33273482	     88.42442033	    111.56278428	     11.36384831	     69.80917414	    121.08718460	     70.70229181
      2.05000000	    -31.33556888	      2.70832455	     -1.52305377	      0.26941093	      0.67327233	     -0.08354612	     84.93106218	    -17.81297864	     -4.02815227	     88.75527418	     32.24874904	    -11.77514836	      0.00000000	     86.39219093	    -13.97308991	     -4.67179452	     89.02112993	     23.10999171	    -17.20313464	      0.00000000	    -15.92792181	     -0.96728537	     -0.86849780	     95.88503298	      1.41377430	     48.92428463	    128.00800583	     88.63195092	    109.96609889	     10.91601075	     69.40491362	    121.43308551	     70.82299115
      2.06666670	    -30.88231936	      2.90733257	     -1.73678779	      0.27192360	      0.68623706	     -0.08636760	     82.76041695	    -17.71361997	     -4.39565122	     86.20167675	     31.56021655	    -11.70537549	      0.00000000	     84.08374506	    -13.66106866	     -5.20702353	     86.75139035	     22.79774911	    -17.00457695	      0.00000000	    -14.80789087	     -0.88710674	     -0.91822222	     94.55073176	      1.63879848	     49.42681172	    127.74373662	     88.80035822	    108.43268395	     10.79463894	     69.20811281	    121.48877902	     70.92007884
      2.08333330	    -30.50971969	      3.05518863	     -1.86593927	      0.27657071	      0.70136703	     -0.08724428	     80.43868587	    -17.57724535	     -4.79247320	     83.52853514	     30.77834219	    -11.65049112	      0.00000000	     81.65931298	    -13.31448583	     -5.79762942	     84.07998236	     22.36126241	    -16.63366042	      0.00000000	    -13.62014220	     -0.85694430	     -1.04640175	     92.87377654	      1.91418283	     49.86601565	    127.51487321	     88.96013757	    106.51074303	     10.71833031	     69.07360028	    121.74269174	     71.02665891
      2.10000000	    -30.00915636	      3.20031428	     -2.01419985	      0.27835848	      0.71382829	     -0.08626455	     78.15355426	    -17.42205500	     -5.24162508	     80.94896073	     30.07151444	    -11.57281543	      0.00000000	     79.30768398	    -13.08291016	     -6.29911481	     81.60834744	     21.76838125	    -16.23250267	      0.00000000	    -12.44703621	     -0.87489884	     -1.04091312	     91.27913245	      2.04386971	     50.30829568	    127.14805904	     89.10664188	    104.65149553	     10.74842054	     69.17372738	    122.10492730	     71.14314489
      2.11666670	    -29.63258377	      3.32527834	     -2.03598875	      0.28091713	      0.72645503	     -0.08656360	     75.99375456	    -17.35569154	     -5.73241151	     78.31980571	     29.28933827	    -11.53744351	      0.00000000	     76.92984561	    -12.72736507	     -6.65679276	     78.84993299	     21.47687080	    -15.53713549	      0.00000000	    -11.20242265	     -0.82535011	     -1.00897766	     89.76912831	      1.89228299	     50.92268987	    126.69746447	     89.25960222	    102.93029048	     10.94063467	     69.14492947	    122.62474449	     71.27239264
      2.13333330	    -29.26800244	      3.26874239	     -2.04464377	      0.28353503	      0.73930555	     -0.08542120	     73.71658518	    -17.13129722	     -6.42937026	     75.59544231	     28.50290414	    -11.55127638	      0.00000000	     74.70324873	    -12.59626539	     -6.91644880	     76.15914466	     21.47634591	    -14.06455017	      0.00000000	    -10.21904697	     -0.55373963	     -0.99387435	     88.60359414	      2.15383705	     51.29221279	    126.13472323	     89.54916125	    101.14714349	     10.23293103	     67.70477977	    123.34890958	     71.57625451
      2.15000000	    -28.79244114	      3.26456189	     -1.87403241	      0.28735797	      0.75521803	     -0.08323405	     71.15738968	    -16.98981652	     -7.24142274	     72.51270740	     27.76946335	    -11.43342540	      0.00000000	     72.24204850	    -12.35688047	     -7.36701299	     73.18467109	     20.67069761	    -12.92949139	      0.00000000	     -9.15889915	     -0.52052244	     -0.88306173	     86.80508780	      2.03846269	     51.88341183	    126.23842756	     89.68457760	     99.29530232	     10.63694418	     68.10940588	    123.95483940	     71.73385265
      2.16666670	    -28.31901099	      3.20393430	     -1.82363108	      0.28936181	      0.76801046	     -0.08239967	     68.65252852	    -16.77098851	     -8.13317134	     69.33921363	     26.79300395	    -11.18702380	      0.00000000	     69.79452088	    -12.25759144	     -7.84641844	     70.10887355	     19.91711212	    -11.71506792	      0.00000000	     -8.24395002	     -0.51891458	     -0.77876009	     85.10668284	      2.06891465	     52.39401762	    126.41981451	     89.82558033	     97.46529197	     10.68748061	     68.32997218	    124.19835500	     71.87700606
      2.18333330	    -27.80950110	      3.09897833	     -1.76765272	      0.29448428	      0.78138987	     -0.08314027	     66.02993898	    -16.58197225	     -9.18104343	     66.19138106	     25.77573896	    -11.10345894	      0.00000000	     67.24606528	    -12.18767064	     -8.60653809	     67.05059924	     19.01268363	    -10.75154826	      0.00000000	     -7.34886951	     -0.44875278	     -0.89556586	     83.18351706	      2.23219044	     52.99324689	    126.39803718	     89.98203551	     95.42042689	     11.01395682	     68.69012398	    124.09742797	     71.98653456
      2.20000000	    -27.27249067	      2.85783307	     -1.53170916	      0.29667327	      0.79463573	     -0.08150026	     63.26677727	    -16.42728642	    -10.50069522	     62.93094311	     24.64602003	    -11.22706208	      0.00000000	     64.69568939	    -12.06719612	     -9.25711644	     63.85829750	     18.22097720	    -10.01853127	      0.00000000	     -6.47478963	     -0.25979786	     -0.87107729	     81.45761115	      2.50258288	     53.47251533	    126.00903545	     90.14540723	     93.63319969	     11.86444504	     69.27754293	    123.86418777	     72.09429362
      2.21666670	    -26.58889817	      2.51678500	     -1.53900622	      0.29970431	      0.80627993	     -0.08179706	     60.54778756	    -15.95399821	    -11.61033859	     59.73717010	     22.99005406	    -11.71055908	      0.00000000	     62.19254922	    -12.11214931	     -9.66980416	     60.87520470	     17.57261852	     -9.15513141	      0.00000000	     -5.82017751	     -0.12309126	     -0.87820167	     79.90375305	      2.89357882	     53.49672909	    125.05456085	     90.41429456	     92.03339399	     12.60532873	     69.54847779	    123.12588034	     72.19031643
      2.23333330	    -26.15111694	      2.37435740	     -1.42865242	      0.30459854	      0.81604266	     -0.08011088	     58.16274060	    -15.62756009	    -12.56614416	     56.93655617	     22.11281187	    -11.63657329	      0.00000000	     59.80282681	    -11.98867501	    -10.15878610	     57.78788697	     16.83902259	     -8.57571242	      0.00000000	     -4.66963614	     -0.10500731	     -0.93019728	     78.20452749	      3.01981913	     53.51674956	    125.40867974	     90.52279984	     90.37640192	     12.70701346	     69.91649974	    123.49054406	     72.23904814
